OpenSim_Sub10_CSBaseline_LCS.mot
version=1
nRows=31
nColumns=11
inDegrees=no
endheader
time	Bot_Shank	2nd_Bot_Shank	2nd_Top_Shank	Top_Shank	Bot_Thigh	Med_Thigh	Top_Thigh	BNOx	BNOy	BNOZ
45.55000000	10353.52883596	10394.69749734	10868.50327080	10821.87170169	13109.89141659	14207.40303438	14901.17870810	197.27434101	-75.76587325	-147.99278974
45.56000000	10351.24051092	10394.86353492	10868.16493219	10823.47962177	13127.86212249	14212.71241355	14909.91400336	197.13330126	-75.75690172	-147.54421176
45.57000000	10349.10346002	10395.74883814	10867.56334838	10825.40540455	13144.46485981	14218.22302216	14918.37189175	196.97942820	-75.74139031	-147.08343993
45.58000000	10347.26850733	10397.51744690	10866.78365168	10827.66577386	13159.07382727	14223.86573676	14926.64238479	196.80386699	-75.71824973	-146.54503257
45.59000000	10345.88643076	10400.33329139	10865.91092986	10830.27739456	13171.06333441	14229.57140116	14934.81541417	196.59776345	-75.68639011	-145.86355987
45.60000000	10345.04670565	10404.21471377	10864.97113961	10833.17862913	13179.95474186	14235.22739862	14942.87500871	196.35314639	-75.64390114	-144.98937749
45.61000000	10344.65665516	10408.74746122	10863.81453773	10836.07517527	13185.70635246	14240.59197522	14950.49052129	196.06466846	-75.58643485	-143.91974537
45.62000000	10344.58992531	10413.43730073	10862.25889684	10838.62971453	13188.35725297	14245.39950156	14957.27312604	195.72746737	-75.50919254	-142.66059534
45.63000000	10344.72016213	10417.78999933	10860.12198951	10840.50492848	13187.94653013	14249.38434825	14962.83399709	195.33668083	-75.40737554	-141.21785923
45.64000000	10344.92101165	10421.31132402	10857.22158836	10841.36349869	13184.51327069	14252.28088591	14966.78430855	194.88744657	-75.27618517	-139.59746888
45.65000000	10345.06611987	10423.50704181	10853.37546597	10840.86810670	13178.09656140	14253.82348514	14968.73523456	194.37490231	-75.11082274	-137.80535612
45.66000000	10345.02913284	10423.88291972	10848.40139495	10838.68143407	13168.73548901	14253.74651655	14968.29794925	193.79418577	-74.90648957	-135.84745277
45.67000000	10344.68369657	10421.94472477	10842.11714790	10834.46616238	13156.46914027	14251.78435075	14965.08362674	193.14043467	-74.65838697	-133.72969068
45.68000000	10343.90345708	10417.19822395	10834.34049741	10827.88497317	13141.33660193	14247.67135836	14958.70344116	192.40878673	-74.36171627	-131.45800166
45.69000000	10342.56206040	10409.14918428	10824.88921608	10818.60054801	13123.37696072	14241.14190997	14948.76856664	191.59437967	-74.01167879	-129.03831756
45.70000000	10340.53363135	10397.30506874	10813.58154116	10806.27657231	13102.63076426	14231.93239251	14934.89263133	190.69235395	-73.60347151	-126.47660153
45.71000000	10337.79380033	10381.53288548	10800.33421623	10790.78954945	13079.44825893	14220.20664998	14917.20951662	189.69843249	-73.13137417	-123.78545929
45.72000000	10334.54467010	10362.50183546	10785.28376545	10772.49080774	13054.87067012	14207.08223958	14897.01385758	188.60963769	-72.58761998	-120.99231697
45.73000000	10331.01898660	10340.98966156	10768.59645077	10751.79592244	13030.03271717	14193.80576217	14875.75734688	187.42316777	-71.96416524	-118.12660597
45.74000000	10327.44949579	10317.77410665	10750.43853411	10729.12046879	13006.06911944	14181.62381860	14854.89167716	186.13622097	-71.25296627	-115.21775773
45.75000000	10324.06894361	10293.63291363	10730.97627741	10704.88002204	12984.11459626	14171.78300975	14835.86854109	184.74599553	-70.44597937	-112.29520366
45.76000000	10321.11007601	10269.34382537	10710.37594261	10679.49015745	12965.30386700	14165.52993645	14820.13963132	183.24968968	-69.53516083	-109.38837518
45.77000000	10318.80557667	10245.68453214	10688.80392249	10653.36654483	12950.77134571	14164.11077159	14809.15614688	181.64450656	-68.51247151	-106.52670447
45.78000000	10317.30552053	10223.36290497	10666.60024614	10627.05035346	12941.24632849	14168.20375358	14803.71423874	179.93416042	-67.37588962	-103.74062814
45.79000000	10316.51452173	10202.87935650	10644.62087931	10601.45565710	12936.25435851	14176.79958081	14802.66367167	178.14171244	-66.14127318	-101.06356734
45.80000000	10316.29181252	10184.69594348	10623.81717652	10577.56547383	12935.09842356	14188.57695153	14804.49435359	176.29380072	-64.82778592	-98.52949502
45.81000000	10316.49662515	10169.27472270	10605.14049226	10556.36282173	12937.08151142	14202.21456398	14807.69619243	174.41706338	-63.45459156	-96.17238414
45.82000000	10316.98819186	10157.07775092	10589.54218106	10538.83071887	12941.50660987	14216.39111638	14810.75909613	172.53813853	-62.04085384	-94.02620764
45.83000000	10317.62574490	10148.56708491	10577.97359740	10525.95218334	12947.67670670	14229.78530699	14812.17297260	170.68366427	-60.60573647	-92.12493847
45.84000000	10318.26851650	10144.20478145	10571.38609580	10518.71023322	12954.89478969	14241.07583402	14810.42772978	168.88027873	-59.16840319	-90.50254959
45.85000000	10318.77573892	10144.45289730	10570.73103077	10518.08788657	12962.46384663	14248.94139573	14804.01327559	167.15462001	-57.74801772	-89.19301393
